<?xml version="1.0" encoding="utf-8"?>
<!-- Generator: Adobe Illustrator 25.0.1, SVG Export Plug-In . SVG Version: 6.00 Build 0)  -->
<svg version="1.1" id="Layer_1" xmlns="http://www.w3.org/2000/svg" xmlns:xlink="http://www.w3.org/1999/xlink" x="0px" y="0px"
	 viewBox="0 0 539 246.3" style="enable-background:new 0 0 539 246.3;" xml:space="preserve">
<style type="text/css">
	.st0{fill:#FFFFFF;}
	.st1{fill:#F9E200;}
</style>
<rect x="44" y="97.3" class="st0" width="14.4" height="51.7"/>
<rect x="107.5" y="159.3" class="st1" width="370.5" height="80.8"/>
<path d="M208,232.9h-17.8v-55.7l17.8-11V232.9z"/>
<path d="M136,232.4h-17.8v-42.3l17.8-11V232.4z"/>
<path d="M304.2,232.9l-17.8-16.7v-50h17.8V232.9z"/>
<path d="M344.6,232.9l-17.8-18.8v-32.4h-17.1v-15.5h52.8v15.5h-18V232.9z"/>
<path d="M444.9,217.4h27.8v15.5h-45.6v-66.6h17.8V217.4z"/>
<path class="st0" d="M171.5,151.3h-14.9v-56h25.3l16.1,43h0.6l-0.9-25.1l14.9-17.9v56h-25.5l-15.8-43h-0.6L171.5,151.3z"/>
<path class="st0" d="M331.1,109.3v0.6l43,15.8v25.5h-56l17.9-14.9l25.1,0.9v-0.6l-43-16.1V95.3h56v14.9L331.1,109.3z"/>
<path class="st0" d="M253.3,106.9l18.1-11.6l-16.4,56h-23.3l-15.8-56h15.2l12.1,43.2h0.4L253.3,106.9z"/>
<polyline class="st0" points="152.9,151.3 135.9,95.2 113.2,95.2 96.4,151.3 111.9,151.3 124.7,106.4 124.8,106.4 131.8,130.7 
	131.7,130.7 "/>
<polyline class="st0" points="259.6,151.3 276.7,95.2 299.4,95.2 316.2,151.3 300.6,151.3 287.9,106.4 287.7,106.4 280.8,130.7 
	280.8,130.7 "/>
<polyline points="357,233.2 377.4,166.4 404.4,166.4 424.5,233.2 406,233.2 390.7,179.7 390.5,179.7 382.3,208.7 382.3,208.7 "/>
<path class="st0" d="M44.1,95.3v13.6h50.7l5.4-13.6H44.1z M44.1,137.3v14h48.1l-16.7-14H44.1z"/>
<path d="M183.9,232.9V217h-59.6l-6.3,15.9H183.9z M183.9,183.5v-16.4h-56.5l19.7,16.4H183.9z"/>
<rect x="167.2" y="169.9" transform="matrix(-1 -1.224647e-16 1.224647e-16 -1 351.2476 400.4498)" width="16.9" height="60.7"/>
<path d="M215.1,167.2v15.6h54.1l6.2-15.6H215.1z M215.1,215.7v16.1h65.1l-19.3-16.1H215.1z"/>
<rect x="215" y="169.5" width="16.6" height="59.7"/>
<rect x="261.3" y="202.3" width="18.8" height="29.3"/>
<polygon class="st1" points="357.5,57.8 357.5,76.1 409.8,76.1 398.4,57.8 "/>
<rect x="357.3" y="5.6" class="st1" width="18.8" height="67.5"/>
<polygon class="st1" points="357.5,3 357.5,20.7 423.8,20.7 430.8,3 "/>
<path class="st0" d="M416.5,104.9h-21.4l0.4-54.5l21,13.7V104.9z"/>
<polygon class="st0" points="474.2,46.1 474.2,26.4 406.2,26.4 429.9,46.1 "/>
<path class="st0" d="M395.2,84.4v21.2h79.1V84.4H395.2z"/>
<rect x="454" y="26.6" transform="matrix(-1 -1.224647e-16 1.224647e-16 -1 928.4078 132.2884)" class="st0" width="20.4" height="79.1"/>
</svg>
