<svg xmlns="http://www.w3.org/2000/svg" viewBox="0 0 595.3 182.1"><linearGradient id="a" gradientUnits="userSpaceOnUse" x1="128.352" y1="3.321" x2="149.002" y2="101.276"><stop offset=".189" stop-color="#e30613"/><stop offset=".931" stop-color="#be1622"/></linearGradient><path d="M121.9 86.5c9.1-.1 18.3.1 27.4-.1 8-.2 15.4-6.2 17.3-13.8 2.3-8.9-.8-17.4-8.2-22.3-2.8-1.9-5.9-2.7-9.2-2.7-9.1-.1-18.1 0-27.2-.1-2.1 0-2.8.8-2.8 2.9.1 5.6 0 11.2 0 16.8 0 5.5.1 11 0 16.5.1 2.1.8 2.9 2.7 2.8z" fill="url(#a)"/><linearGradient id="b" gradientUnits="userSpaceOnUse" x1="61.72" y1="32.578" x2="61.72" y2="108.296"><stop offset=".189" stop-color="#36a9e1"/><stop offset=".613" stop-color="#1d71b8"/><stop offset=".894" stop-color="#2d2e83"/></linearGradient><path d="M14.4 114.5l3.8-3.2c1.4-1.2 2.6-2.2 3.8-3.3l6.9-6c10.4-9.1 20.8-18.1 31.2-27.3 1.3-1.2 1.8-1.1 3.2.1 11.3 9.9 22.8 19.9 34 29.6l8.1 7c.3.2.6.4 1 .7.2.1.4.3.7.4l1.4.9.2-2.8c.1-.7.1-1.4.1-2V89.4c0-15.9 0-31.9.1-47.8 0-1.1-.1-2.6-1-3.5-.9-.9-2.2-1-3.1-.9-1.2.1-2.1 0-2.9 0-1.8 0-2.8 0-3.6.8-.8.9-.9 2.2-.9 5.5v1.6c-.1 8.9-.1 17.9 0 26.6v13.9c0 .7-.1 1.5-.1 2.5L94.9 86c-2.6-2.2-5.1-4.3-7.5-6.4l-2-1.8c-6.8-5.9-13.8-12-20.7-18.2-2-1.8-3.7-1.7-5.8.1-8.6 7.5-17.1 15-25.7 22.5L27 87.6c-.2.2-.5.4-.8.6-.1-.6-.1-1.2-.1-1.8V58.9c0-2 0-3.2-.8-4-.8-.8-1.9-.8-3.8-.8h-2.4c-2.1 0-3.2 0-4 .8-.8.8-.8 2.1-.7 4.6v55z" fill="url(#b)"/><linearGradient id="c" gradientUnits="userSpaceOnUse" x1="142.444" y1="172.27" x2="157.233" y2="100.439"><stop offset=".189" stop-color="#36a9e1"/><stop offset=".613" stop-color="#1d71b8"/><stop offset=".894" stop-color="#2d2e83"/></linearGradient><path d="M190.6 112.1c-2.4-9.5-10.8-16.5-21-16.6-15.9-.3-31.8-.1-47.7-.1-2.1 0-2.9.9-2.9 3.1 0 13.8 0 27.6-.1 41.4 0 2.6 1.3 3 3.3 3H146c7.6 0 15.1.1 22.7 0 15.8-.5 26-14.8 21.9-30.8zm-21.3 18.7c-5.9.1-11.9 0-17.8 0-6.2 0-12.5-.1-18.7 0-2 0-2.7-.6-2.7-2.8.1-6.1.1-12.2.1-18.3 0-2.1.7-2.8 2.7-2.8 12.2.1 24.3 0 36.5.1 6.4.1 11.2 5.5 11.1 12.1-.1 6.7-4.8 11.6-11.2 11.7z" fill="url(#c)"/><linearGradient id="d" gradientUnits="userSpaceOnUse" x1="63.236" y1="86.029" x2="63.236" y2="156.619"><stop offset=".189" stop-color="#e30613"/><stop offset=".931" stop-color="#be1622"/></linearGradient><path d="M11 141.5l.6 2.3h3.3c1.9-.1 3.8-.1 5.7.1.4 0 .9.1 1.3.1 3.3 0 6.1-1.3 9.2-4 5.9-5.3 12-10.6 17.9-15.7 3.8-3.3 7.7-6.6 11.5-10 1-.9 1.5-.9 2.6.2l13.5 11.7c5.9 5.1 11.8 10.3 17.7 15.4 1.8 1.6 3.7 2.3 5.9 2.2 2.6-.1 5.2-.1 7.8 0h7.4l-2.8-2.2-50.8-44.7L11 141.5z" fill="url(#d)"/><linearGradient id="e" gradientUnits="userSpaceOnUse" x1="219.444" y1="63.539" x2="219.444" y2="79.915"><stop offset=".189" stop-color="#e30613"/><stop offset=".931" stop-color="#be1622"/></linearGradient><path d="M217.8 47.4l-15.3 36.1h3.7l3.6-8.6H229l3.6 8.6h3.7L221 47.4h-3.2zm9.8 24h-16.4l8.2-19.7 8.2 19.7z" fill="url(#e)"/><linearGradient id="f" gradientUnits="userSpaceOnUse" x1="258.027" y1="63.539" x2="258.027" y2="79.915"><stop offset=".189" stop-color="#e30613"/><stop offset=".931" stop-color="#be1622"/></linearGradient><path fill="url(#f)" d="M258 67.5l-12.4-20.1h-3.7v36.1h3.4V53.4l12.1 19.5h1.4l12-19.5v30.1h3.4V47.4h-3.8z"/><linearGradient id="g" gradientUnits="userSpaceOnUse" x1="295.57" y1="63.539" x2="295.57" y2="79.915"><stop offset=".189" stop-color="#e30613"/><stop offset=".931" stop-color="#be1622"/></linearGradient><path fill="url(#g)" d="M286.8 67h19.4v-3.4h-19.4V50.9h20.4v-3.5h-23.8v36.1h24.3v-3.6h-20.9z"/><linearGradient id="h" gradientUnits="userSpaceOnUse" x1="329.306" y1="63.539" x2="329.306" y2="79.915"><stop offset=".189" stop-color="#e30613"/><stop offset=".931" stop-color="#be1622"/></linearGradient><path d="M338.9 66.8c1.9-2 2.9-4.8 2.9-8 0-5.5-3.6-11.4-11.3-11.4h-15v36.1h3.5V70.2h8.4l11.5 13.3h4.6l-12-13.5c3-.2 5.6-1.3 7.4-3.2zm-.9-8c-.1 5.1-2.9 7.9-7.9 7.9h-11.3V50.9h11.6c2.3 0 4.2.8 5.6 2.3 1.3 1.4 2.1 3.4 2 5.6z" fill="url(#h)"/><linearGradient id="i" gradientUnits="userSpaceOnUse" x1="350.63" y1="63.539" x2="350.63" y2="79.915"><stop offset=".189" stop-color="#e30613"/><stop offset=".931" stop-color="#be1622"/></linearGradient><path fill="url(#i)" d="M348.9 47.4h3.4v36.1h-3.4z"/><linearGradient id="j" gradientUnits="userSpaceOnUse" x1="374.926" y1="63.539" x2="374.926" y2="79.915"><stop offset=".189" stop-color="#e30613"/><stop offset=".931" stop-color="#be1622"/></linearGradient><path d="M377.3 50.4c3.8 0 7.4 1.5 10 4.3l.3.3 2.4-2.2-.3-.4c-3.3-3.5-7.7-5.4-12.4-5.4-5.1 0-9.5 1.8-12.6 5.1-3.2 3.4-4.9 8.2-4.9 13.5 0 9.1 5.5 18.2 17.5 18.2 4.7 0 9.1-1.9 12.4-5.4l.3-.3-2.4-2.4-.3.3c-2.6 2.8-6.3 4.3-10.1 4.3-6.4 0-14-3.9-14.1-14.9 0-4.4 1.4-8.4 3.9-11.1 2.6-2.5 6.1-3.9 10.3-3.9z" fill="url(#j)"/><linearGradient id="k" gradientUnits="userSpaceOnUse" x1="409.571" y1="63.539" x2="409.571" y2="79.915"><stop offset=".189" stop-color="#e30613"/><stop offset=".931" stop-color="#be1622"/></linearGradient><path d="M407.9 47.4l-15.3 36.1h3.7l3.6-8.6h19.2l3.6 8.6h3.7l-15.3-36.1h-3.2zm9.9 24h-16.4l8.2-19.7 8.2 19.7z" fill="url(#k)"/><linearGradient id="l" gradientUnits="userSpaceOnUse" x1="445.93" y1="63.539" x2="445.93" y2="79.915"><stop offset=".189" stop-color="#e30613"/><stop offset=".931" stop-color="#be1622"/></linearGradient><path fill="url(#l)" d="M455.9 47.4v28.2l-21.5-28-.1-.2h-1.8v36.1h3.5V55.4l21.5 27.9.2.2h1.6V47.4z"/><g><linearGradient id="m" gradientUnits="userSpaceOnUse" x1="227.776" y1="7.697" x2="227.776" y2="136.202"><stop offset=".189" stop-color="#36a9e1"/><stop offset=".613" stop-color="#1d71b8"/><stop offset=".894" stop-color="#2d2e83"/></linearGradient><path fill="url(#m)" d="M238.6 125.3l-9.8-31.1h-2.1l-9.8 31.1-9.8-30.8-.1-.3h-3.7l11.8 35.9.1.3h3.4l5.4-16.9 3.7-12.4 3.8 12.5 5.4 16.8h3.3l12-36.2h-3.7z"/><linearGradient id="n" gradientUnits="userSpaceOnUse" x1="270.621" y1="7.697" x2="270.621" y2="136.202"><stop offset=".189" stop-color="#36a9e1"/><stop offset=".613" stop-color="#1d71b8"/><stop offset=".894" stop-color="#2d2e83"/></linearGradient><path fill="url(#n)" d="M261.9 113.8h19.4v-3.4h-19.4V97.7h20.3v-3.5h-23.7v36.1h24.3v-3.6h-20.9z"/><linearGradient id="o" gradientUnits="userSpaceOnUse" x1="303.667" y1="7.697" x2="303.667" y2="136.202"><stop offset=".189" stop-color="#36a9e1"/><stop offset=".613" stop-color="#1d71b8"/><stop offset=".894" stop-color="#2d2e83"/></linearGradient><path d="M311.3 111.8c2.8-1.4 4.5-4.2 4.5-7.5 0-7.4-6.1-10.1-11.3-10.1h-14v36.1h14c7.9 0 12.5-3.5 12.5-9.7-.1-4-2.3-7.3-5.7-8.8zm-17.4-14.3h10.6c4 0 8 2.1 8 6.8 0 4.8-4.2 5.8-7.7 5.8h-10.9V97.5zm10.5 29.2h-10.6v-13.1h10.9c4.2 0 8.7 1.8 8.7 6.9.1 5.2-4.8 6.2-9 6.2z" fill="url(#o)"/><linearGradient id="p" gradientUnits="userSpaceOnUse" x1="354.134" y1="7.697" x2="354.134" y2="136.202"><stop offset=".189" stop-color="#36a9e1"/><stop offset=".613" stop-color="#1d71b8"/><stop offset=".894" stop-color="#2d2e83"/></linearGradient><path d="M361.7 111.8c2.8-1.4 4.5-4.2 4.5-7.5 0-7.4-6.1-10.1-11.3-10.1h-14v36.1h14c7.9 0 12.5-3.5 12.5-9.7 0-4-2.2-7.3-5.7-8.8zm-17.4-14.3h10.6c4 0 8 2.1 8 6.8 0 4.8-4.2 5.8-7.7 5.8h-10.9V97.5zm10.6 29.2h-10.6v-13.1h10.9c4.2 0 8.7 1.8 8.7 6.9.1 5.2-4.8 6.2-9 6.2z" fill="url(#p)"/><linearGradient id="q" gradientUnits="userSpaceOnUse" x1="388.575" y1="7.697" x2="388.575" y2="136.202"><stop offset=".189" stop-color="#36a9e1"/><stop offset=".613" stop-color="#1d71b8"/><stop offset=".894" stop-color="#2d2e83"/></linearGradient><path d="M398.3 116.5c0 7.4-5.1 10.8-9.7 10.8-2.6 0-4.9-1-6.7-2.7-2-2-3-4.8-3-8.1V94.2h-3.4v22.3c0 4.4 1.4 8.1 4.1 10.7 2.4 2.3 5.6 3.6 9 3.6 6.3 0 13.1-4.5 13.1-14.3V94.2h-3.4v22.3z" fill="url(#q)"/><linearGradient id="r" gradientUnits="userSpaceOnUse" x1="412.365" y1="7.697" x2="412.365" y2="136.202"><stop offset=".189" stop-color="#36a9e1"/><stop offset=".613" stop-color="#1d71b8"/><stop offset=".894" stop-color="#2d2e83"/></linearGradient><path fill="url(#r)" d="M410.7 94.2h3.4v36.1h-3.4z"/><linearGradient id="s" gradientUnits="userSpaceOnUse" x1="434.356" y1="7.697" x2="434.356" y2="136.202"><stop offset=".189" stop-color="#36a9e1"/><stop offset=".613" stop-color="#1d71b8"/><stop offset=".894" stop-color="#2d2e83"/></linearGradient><path fill="url(#s)" d="M426.8 94.2h-3.5v36.1h22.1v-3.5h-18.6z"/><linearGradient id="t" gradientUnits="userSpaceOnUse" x1="466.409" y1="7.697" x2="466.409" y2="136.202"><stop offset=".189" stop-color="#36a9e1"/><stop offset=".613" stop-color="#1d71b8"/><stop offset=".894" stop-color="#2d2e83"/></linearGradient><path d="M463.6 94.2h-11.7v36.1h11.7c5.1 0 9.5-1.8 12.6-5.1 3.1-3.3 4.8-8.2 4.7-13.3-.2-8.8-5.6-17.7-17.3-17.7zm10 28.5c-2.5 2.7-5.9 4.1-10 4.1h-8.2v-29h8.2c9.3 0 13.7 7.1 13.8 14.1.1 4.1-1.3 8.1-3.8 10.8z" fill="url(#t)"/><linearGradient id="u" gradientUnits="userSpaceOnUse" x1="500.754" y1="7.697" x2="500.754" y2="136.202"><stop offset=".189" stop-color="#36a9e1"/><stop offset=".613" stop-color="#1d71b8"/><stop offset=".894" stop-color="#2d2e83"/></linearGradient><path fill="url(#u)" d="M492 113.8h19.4v-3.4H492V97.7h20.4v-3.5h-23.8v36.1h24.3v-3.6H492z"/><linearGradient id="v" gradientUnits="userSpaceOnUse" x1="534.49" y1="7.697" x2="534.49" y2="136.202"><stop offset=".189" stop-color="#36a9e1"/><stop offset=".613" stop-color="#1d71b8"/><stop offset=".894" stop-color="#2d2e83"/></linearGradient><path d="M544 113.6c1.9-2 2.9-4.8 2.9-8 0-5.5-3.6-11.4-11.3-11.4h-15v36.1h3.5V117h8.4l11.5 13.3h4.6l-11.7-13.5c2.8-.2 5.3-1.3 7.1-3.2zm-20-.1V97.7h11.6c2.3 0 4.2.8 5.6 2.3 1.3 1.4 2.1 3.5 2.1 5.6 0 5.1-2.9 7.9-7.9 7.9H524z" fill="url(#v)"/><linearGradient id="w" gradientUnits="userSpaceOnUse" x1="567.122" y1="7.697" x2="567.122" y2="136.202"><stop offset=".189" stop-color="#36a9e1"/><stop offset=".613" stop-color="#1d71b8"/><stop offset=".894" stop-color="#2d2e83"/></linearGradient><path d="M568 110.1l-.4-.1c-5.9-1.2-9.8-2.2-9.8-6.2 0-6.5 8.6-6.6 9.6-6.6 3.7 0 7.4.6 9.7 4.5l.2.4 2.9-1.8-.3-.4c-3.2-5.1-7.3-6.2-12.5-6.2-4.5 0-8.5 1.5-10.8 3.9-1.6 1.7-2.3 3.8-2.3 6.3 0 6.9 6.7 8.3 12.6 9.5 5.2 1.1 10.6 2.1 10.5 7.1 0 6.3-7.1 6.9-10.1 6.9-4 0-9-2.1-10.9-6.1l-.2-.4-3.1 1.6.2.4c2.8 5.8 9 7.9 14 7.9 3.2 0 13.5-.7 13.6-10.3.1-7.8-6.5-9.1-12.9-10.4z" fill="url(#w)"/></g><linearGradient id="x" gradientUnits="userSpaceOnUse" x1="19.912" y1="103.621" x2="43.837" y2="127.546"><stop offset=".189" stop-color="#e30613"/><stop offset=".931" stop-color="#be1622"/></linearGradient><path d="M11 141.5l.6 2.3h3.3c1.9-.1 3.8-.1 5.7.1.4 0 .9.1 1.3.1 3.3 0 6.1-1.3 9.2-4 5.9-5.3 12-10.6 17.9-15.7 3.8-3.3 7.7-6.6 11.5-10 .5-.4.8-.6 1.2-.6V97L11 141.5z" fill="url(#x)"/><linearGradient id="y" gradientUnits="userSpaceOnUse" x1="-88.036" y1="-3.935" x2="75.096" y2="113.112"><stop offset=".189" stop-color="#36a9e1"/><stop offset=".613" stop-color="#1d71b8"/><stop offset=".894" stop-color="#2d2e83"/></linearGradient><path d="M58.9 59.7c-8.6 7.5-17.1 15-25.7 22.5L27 87.6c-.2.2-.5.4-.8.6-.1-.6-.1-1.2-.1-1.8V58.9c0-2 0-3.2-.8-4-.8-.8-1.9-.8-3.8-.8h-2.4c-2.1 0-3.2 0-4 .8-.8.8-.8 2.1-.7 4.6v54.9l3.8-3.2c1.4-1.2 2.6-2.2 3.8-3.3l6.9-6c10.4-9.1 20.8-18.1 31.2-27.3.5-.4.8-.7 1.2-.8V58.4c-.7.1-1.5.5-2.4 1.3z" fill="url(#y)"/></svg>