<?xml version="1.0" encoding="UTF-8"?>
<svg width="109px" height="29px" viewBox="0 0 109 29" version="1.1" xmlns="http://www.w3.org/2000/svg" xmlns:xlink="http://www.w3.org/1999/xlink">
    <title>Logo-PayPal-Module</title>
    <defs>
        <polygon id="path-1" points="0 0.5958 22.3765636 0.5958 22.3765636 26.99919 0 26.99919"></polygon>
        <polygon id="path-3" points="0 0.5958 20.2833035 0.5958 20.2833035 24.06969 0 24.06969"></polygon>
        <polygon id="path-5" points="0.000310415345 0.5958 20.2837535 0.5958 20.2837535 24.06987 0.000310415345 24.06987"></polygon>
    </defs>
    <g id="1---Page---Accept-Online-Payments" stroke="none" stroke-width="1" fill="none" fill-rule="evenodd">
        <g id="1---AcceptOnlinePayments---All" transform="translate(-283.000000, -2261.000000)">
            <g id="Logo-PayPal-Module" transform="translate(283.000000, 2261.000000)">
                <path d="M84.49929,12.40884 C84.17259,14.55714 82.53099,14.55714 80.94519,14.55714 L80.04249,14.55714 L80.67519,10.54674 C80.71389,10.30374 80.92179,10.12554 81.16839,10.12554 L81.58239,10.12554 C82.66149,10.12554 83.68209,10.12554 84.20859,10.74114 C84.52179,11.10924 84.61809,11.65464 84.49929,12.40884 M83.80809,6.80454 L77.82489,6.80454 C77.41539,6.80454 77.06709,7.10244 77.00319,7.50654 L74.58309,22.85064 C74.53629,23.15304 74.76939,23.42664 75.07629,23.42664 L78.14619,23.42664 C78.43329,23.42664 78.67719,23.21874 78.72129,22.93614 L79.40799,18.58554 C79.47189,18.18144 79.82019,17.88354 80.22879,17.88354 L82.12149,17.88354 C86.06439,17.88354 88.33869,15.97644 88.93359,12.19554 C89.20089,10.54224 88.94349,9.24264 88.16949,8.33364 C87.31899,7.33374 85.81059,6.80454 83.80809,6.80454" id="Fill-1" fill="#009DDC"></path>
                <path d="M41.81958,12.40884 C41.49288,14.55714 39.85218,14.55714 38.26548,14.55714 L37.36278,14.55714 L37.99548,10.54674 C38.03418,10.30374 38.24298,10.12554 38.48868,10.12554 L38.90268,10.12554 C39.98268,10.12554 41.00238,10.12554 41.52888,10.74114 C41.84388,11.10924 41.93838,11.65464 41.81958,12.40884 M41.12928,6.80454 L35.14518,6.80454 C34.73568,6.80454 34.38738,7.10244 34.32438,7.50654 L31.90428,22.85064 C31.85658,23.15304 32.09058,23.42664 32.39658,23.42664 L35.25408,23.42664 C35.66268,23.42664 36.01188,23.12964 36.07488,22.72554 L36.72828,18.58554 C36.79218,18.18144 37.14048,17.88354 37.54908,17.88354 L39.44268,17.88354 C43.38468,17.88354 45.65898,15.97644 46.25388,12.19554 C46.52118,10.54224 46.26468,9.24264 45.49068,8.33364 C44.63928,7.33374 43.13088,6.80454 41.12928,6.80454" id="Fill-3" fill="#1C3587"></path>
                <path d="M55.02159,17.91747 C54.74439,19.55457 53.44479,20.65347 51.78609,20.65347 C50.95539,20.65347 50.29119,20.38617 49.86369,19.88037 C49.43889,19.37817 49.27959,18.66357 49.41459,17.86797 C49.67199,16.24527 50.99229,15.11037 52.62489,15.11037 C53.43939,15.11037 54.09999,15.38037 54.53559,15.89157 C54.97389,16.40547 55.14759,17.12547 55.02159,17.91747 M59.01489,12.34017 L56.14929,12.34017 C55.90269,12.34017 55.69389,12.51837 55.65609,12.76137 L55.53009,13.56237 L55.33029,13.27257 C54.70929,12.37167 53.32689,12.07107 51.94629,12.07107 C48.77919,12.07107 46.07649,14.46957 45.54999,17.83377 C45.27459,19.51227 45.66429,21.11697 46.61649,22.23657 C47.48949,23.26527 48.73869,23.69277 50.22459,23.69277 C52.77609,23.69277 54.19179,22.05387 54.19179,22.05387 L54.06399,22.85037 C54.01539,23.15277 54.25029,23.42727 54.55629,23.42727 L57.13749,23.42727 C57.54609,23.42727 57.89349,23.12937 57.95829,22.72527 L59.50629,12.91707 C59.55489,12.61377 59.32089,12.34017 59.01489,12.34017" id="Fill-5" fill="#1C3587"></path>
                <path d="M97.7004,17.91747 C97.4241,19.55457 96.1245,20.65347 94.4667,20.65347 C93.6351,20.65347 92.97,20.38617 92.5434,19.88037 C92.1186,19.37817 91.9584,18.66357 92.0943,17.86797 C92.3508,16.24527 93.672,15.11037 95.3046,15.11037 C96.1182,15.11037 96.7797,15.38037 97.2144,15.89157 C97.6536,16.40547 97.8264,17.12547 97.7004,17.91747 M101.6937,12.34017 L98.8281,12.34017 C98.5824,12.34017 98.3736,12.51837 98.3358,12.76137 L98.2098,13.56237 L98.0091,13.27257 C97.389,12.37167 96.0057,12.07107 94.6251,12.07107 C91.4598,12.07107 88.7562,14.46957 88.2297,17.83377 C87.9552,19.51227 88.344,21.11697 89.2953,22.23657 C90.1701,23.26527 91.4184,23.69277 92.9043,23.69277 C95.4558,23.69277 96.8706,22.05387 96.8706,22.05387 L96.7446,22.85037 C96.6951,23.15277 96.93,23.42727 97.236,23.42727 L99.8172,23.42727 C100.2249,23.42727 100.5732,23.12937 100.6371,22.72527 L102.186,12.91707 C102.2346,12.61377 102.0006,12.34017 101.6937,12.34017" id="Fill-7" fill="#009DDC"></path>
                <path d="M74.27493,12.34035 L71.39583,12.34035 C71.11953,12.34035 70.86213,12.47715 70.70733,12.70485 L66.73473,18.55575 L65.05083,12.93345 C64.94643,12.58155 64.62153,12.34035 64.25433,12.34035 L61.42383,12.34035 C61.08093,12.34035 60.84063,12.67695 60.95133,13.00005 L64.12293,22.30875 L61.13943,26.51715 C60.90633,26.84745 61.14123,27.30465 61.54623,27.30465 L64.42443,27.30465 C64.69623,27.30465 64.95273,27.17055 65.10753,26.94645 L74.68533,13.12335 C74.91393,12.79305 74.67723,12.34035 74.27493,12.34035" id="Fill-9" fill="#1C3587"></path>
                <path d="M105.07095,7.22637 L102.61485,22.85037 C102.56715,23.15367 102.80205,23.42727 103.10805,23.42727 L105.57765,23.42727 C105.98805,23.42727 106.33545,23.12937 106.40025,22.72527 L108.82035,7.38117 C108.86805,7.07877 108.63405,6.80517 108.32805,6.80517 L105.56325,6.80517 C105.31845,6.80517 105.10875,6.98337 105.07095,7.22637" id="Fill-11" fill="#009DDC"></path>
                <g id="Group-15" transform="translate(0.000000, 0.305190)">
                    <mask id="mask-2" fill="white">
                        <use xlink:href="#path-1"></use>
                    </mask>
                    <g id="Clip-14"></g>
                    <path d="M20.16504,7.30359 C20.48724,5.24979 20.16234,3.85209 19.05174,2.58579 C17.82864,1.19259 15.61914,0.59499 12.79224,0.59499 L4.58514,0.59499 C4.00734,0.59499 3.51594,1.01529 3.42594,1.58679 L0.00864,23.25519 C-0.05886,23.68269 0.27144,24.06969 0.70434,24.06969 L5.77044,24.06969 L5.42124,26.28729 C5.36184,26.66079 5.65074,26.99919 6.02964,26.99919 L10.30014,26.99919 C10.80504,26.99919 11.23614,26.63199 11.31444,26.13249 L11.35674,25.91559 L12.16044,20.81439 L12.21264,20.53269 C12.29184,20.03319 12.72204,19.66509 13.22694,19.66509 L13.86594,19.66509 C18.00324,19.66509 21.24234,17.98479 22.18914,13.12389 C22.58424,11.09259 22.37994,9.39699 21.33414,8.20539 C21.01734,7.84449 20.62404,7.54659 20.16504,7.30359" id="Fill-13" fill="#009DDC" mask="url(#mask-2)"></path>
                </g>
                <g id="Group-18" transform="translate(0.000000, 0.305190)">
                    <mask id="mask-4" fill="white">
                        <use xlink:href="#path-3"></use>
                    </mask>
                    <g id="Clip-17"></g>
                    <path d="M20.16504,7.30359 C20.48724,5.24979 20.16234,3.85209 19.05174,2.58579 C17.82864,1.19259 15.61914,0.59499 12.79224,0.59499 L4.58514,0.59499 C4.00734,0.59499 3.51594,1.01529 3.42594,1.58679 L0.00864,23.25519 C-0.05886,23.68269 0.27144,24.06969 0.70434,24.06969 L5.77044,24.06969 L7.04304,16.00029 L7.00344,16.25319 C7.09344,15.68259 7.58124,15.26139 8.15904,15.26139 L10.56744,15.26139 C15.29604,15.26139 18.99954,13.34079 20.08134,7.78419 C20.11284,7.61949 20.14074,7.46019 20.16504,7.30359" id="Fill-16" fill="#211D6F" mask="url(#mask-4)"></path>
                </g>
                <g id="Group-21" transform="translate(0.000000, 0.305190)">
                    <mask id="mask-6" fill="white">
                        <use xlink:href="#path-5"></use>
                    </mask>
                    <g id="Clip-20"></g>
                    <path d="M8.41059,7.33077 C8.46459,6.98787 8.68509,6.70617 8.98209,6.56397 C9.11619,6.49917 9.26739,6.46317 9.42489,6.46317 L15.85809,6.46317 C16.62039,6.46317 17.33049,6.51357 17.98029,6.61797 C18.16569,6.64767 18.34659,6.68277 18.52209,6.72147 C18.69759,6.76017 18.86769,6.80337 19.03239,6.85197 C19.11519,6.87627 19.19619,6.90147 19.27629,6.92757 C19.59489,7.03377 19.89189,7.15887 20.16549,7.30377 C20.48769,5.24907 20.16279,3.85227 19.05219,2.58597 C17.82909,1.19187 15.61959,0.59517 12.79179,0.59517 L4.58559,0.59517 C4.00779,0.59517 3.51639,1.01547 3.42639,1.58607 L0.00909,23.25537 C-0.05841,23.68287 0.27189,24.06987 0.70479,24.06987 L5.77089,24.06987 L7.04349,15.99957 L8.41059,7.33077 Z" id="Fill-19" fill="#1C3587" mask="url(#mask-6)"></path>
                </g>
            </g>
        </g>
    </g>
</svg>