<svg viewBox="0 0 117 80" xmlns="http://www.w3.org/2000/svg" xmlns:xlink="http://www.w3.org/1999/xlink"><defs><path d="M7.053.412C3.386.412.415 3.366.415 7.01v65.98c0 3.644 2.971 6.598 6.638 6.598h102.894c3.666 0 6.638-2.954 6.638-6.598V7.01c0-3.644-2.972-6.598-6.638-6.598H7.053zm-6.638 0h116.17v79.176H.415V.412z" id="a"/></defs><g fill="none" fill-rule="evenodd"><g><mask id="b" fill="#fff"><use xlink:href="#a"/></mask><path d="M7.053.412C3.386.412.415 3.366.415 7.01v65.98c0 3.644 2.971 6.598 6.638 6.598h102.894c3.666 0 6.638-2.954 6.638-6.598V7.01c0-3.644-2.972-6.598-6.638-6.598H7.053z" mask="url(#b)"/></g><path d="M109.947 79.588H7.053c-3.666 0-6.638-2.955-6.638-6.598V7.01C.415 3.367 3.387.412 7.053.412h102.894c3.666 0 6.638 2.955 6.638 6.598v65.98c0 3.643-2.972 6.598-6.638 6.598" fill="#2778CB"/><g fill="#FFF"><path d="M24.292 41.185h-3.065l3.065-7.109v.226l3.065 6.883h-3.065zm26.11 2.256l-6.13-13.652h-7.833v19.632L27.584 29.79H20.887l-8.855 20.422h5.336l1.816-4.626h10.103l1.93 4.626h10.217V34.979l6.697 15.232h4.654l6.812-14.893V50.21h4.995V29.789h-8.06l-6.13 13.652zM84.007 45.867H72.542v-4.062h11.125V37.97H72.542v-3.723h11.465l5.676 5.416-5.676 6.205zm12.033-6.205l3.632-3.837 5.296-5.98h-6.317l-5.676 6.206-5.676-6.205H67.433v20.196H86.73l6.017-6.657 5.903 6.77h6.317l-5.296-6.206-3.632-4.287z"/></g></g></svg>
