<svg viewBox="0 0 117 80" xmlns="http://www.w3.org/2000/svg" xmlns:xlink="http://www.w3.org/1999/xlink"><defs><path d="M6.686 79.583c-3.457 0-6.268-2.803-6.268-6.25V6.667c0-3.447 2.811-6.25 6.268-6.25h103.628c3.457 0 6.268 2.803 6.268 6.25v66.666c0 3.447-2.811 6.25-6.268 6.25H6.686z" id="a"/></defs><g fill="none" fill-rule="evenodd"><g><use fill="#FFF" xlink:href="#a"/><path stroke="#E6EBEC" d="M6.686 79.083h103.628c3.18 0 5.768-2.58 5.768-5.75V6.667c0-3.17-2.587-5.75-5.768-5.75H6.686C3.505.917.918 3.497.918 6.667v66.666c0 3.17 2.587 5.75 5.768 5.75z"/></g><path d="M85.162 30.781L90.3 43.585c.286.724.554 1.456.802 2.195.252.751.477 1.443.674 2.072h.084c.197-.601.421-1.279.674-2.031a54.83 54.83 0 0 1 .843-2.32l4.804-12.72h2.105L94.43 45.225a162.526 162.526 0 0 1-1.665 4.165c-.473 1.145-1 2.269-1.58 3.364-.483.917-1.025 1.801-1.623 2.648a11.115 11.115 0 0 1-1.832 2.01c-.785.683-1.51 1.183-2.17 1.498-.66.315-1.101.514-1.326.595l-.676-1.6c.578-.255 1.14-.543 1.686-.862a9.154 9.154 0 0 0 1.811-1.395c.507-.493 1.062-1.141 1.665-1.95.603-.806 1.144-1.784 1.622-2.933.168-.438.253-.726.253-.863 0-.19-.084-.478-.253-.862L83.054 30.78h2.108v.001zm-5.854 9.153a27.76 27.76 0 0 0-3.35.122 12.43 12.43 0 0 0-3.222.718c-.983.37-1.797.909-2.442 1.62-.646.712-.97 1.656-.97 2.833 0 1.394.407 2.42 1.223 3.077.813.656 1.726.985 2.737.985.815 0 1.545-.11 2.19-.33a5.74 5.74 0 0 0 1.685-.88 5.67 5.67 0 0 0 1.2-1.252c.324-.466.57-.944.74-1.437.14-.548.211-.944.211-1.191v-4.265h-.002zM81.29 45.8c0 .794.013 1.588.042 2.38.027.794.111 1.559.252 2.298H79.73l-.295-2.791h-.086a6.943 6.943 0 0 1-.967 1.15 7.402 7.402 0 0 1-3.138 1.806 7.824 7.824 0 0 1-2.17.286c-.983 0-1.847-.158-2.592-.472-.745-.315-1.355-.725-1.833-1.23a5.025 5.025 0 0 1-1.073-1.745 5.724 5.724 0 0 1-.358-1.97c0-2.324 1.004-4.116 3.012-5.375 2.007-1.26 5.034-1.86 9.08-1.806V37.8c0-.521-.05-1.117-.148-1.786a5.513 5.513 0 0 0-.653-1.908c-.337-.601-.843-1.107-1.516-1.517-.674-.41-1.588-.616-2.738-.616a8.87 8.87 0 0 0-2.592.39 8.816 8.816 0 0 0-2.337 1.087l-.633-1.437a9.453 9.453 0 0 1 2.78-1.291c.975-.262 1.981-.394 2.992-.39 1.404 0 2.549.232 3.434.697.884.465 1.58 1.068 2.085 1.805.51.75.861 1.594 1.032 2.483.181.899.273 1.813.275 2.73V45.8h-.002zm-29.23-8.864a8.727 8.727 0 0 0 1.6.287c.59.055 1.222.082 1.896.082 2.527 0 4.486-.575 5.877-1.724 1.39-1.148 2.085-2.831 2.085-5.047 0-1.067-.182-1.998-.548-2.791a5.013 5.013 0 0 0-1.558-1.948c-.674-.507-1.474-.89-2.401-1.15-.928-.26-1.952-.39-3.077-.39-.898 0-1.67.035-2.317.103-.645.068-1.166.144-1.559.226v12.352h.001zM50.077 23.15a49.003 49.003 0 0 1 2.697-.37c1.078-.114 2.16-.17 3.245-.165 1.685 0 3.138.199 4.359.596 1.223.396 2.226.965 3.012 1.703a7.002 7.002 0 0 1 1.58 2.338c.38.903.567 1.944.567 3.12 0 1.422-.258 2.667-.778 3.733a7.767 7.767 0 0 1-2.127 2.688c-.9.724-1.967 1.265-3.202 1.62-1.237.356-2.585.534-4.046.534-1.32 0-2.428-.096-3.327-.287v11.818h-1.98V23.15zm-15.915 2.2c1.1-1.285 1.84-3.075 1.638-4.856-1.584.061-3.501 1.02-4.637 2.304-1.02 1.138-1.911 2.96-1.67 4.705 1.767.132 3.57-.867 4.67-2.154zm3.963 11.301c.044 4.603 4.18 6.134 4.225 6.154-.035.108-.66 2.182-2.177 4.325-1.313 1.852-2.675 3.699-4.82 3.737-2.11.038-2.786-1.207-5.197-1.207-2.41 0-3.163 1.169-5.16 1.245-2.07.075-3.647-2.005-4.97-3.85-2.704-3.777-4.771-10.67-1.996-15.323 1.378-2.31 3.841-3.774 6.516-3.81 2.033-.038 3.953 1.32 5.196 1.32 1.242 0 3.575-1.634 6.029-1.394 1.025.042 3.907.4 5.757 3.017-.15.09-3.439 1.939-3.403 5.786z" fill="#000"/></g></svg>
