<svg viewBox="0 0 117 80" xmlns="http://www.w3.org/2000/svg" xmlns:xlink="http://www.w3.org/1999/xlink"><defs><path d="M6.686 79.583c-3.457 0-6.268-2.803-6.268-6.25V6.667c0-3.447 2.811-6.25 6.268-6.25h103.628c3.457 0 6.268 2.803 6.268 6.25v66.666c0 3.447-2.811 6.25-6.268 6.25H6.686z" id="a"/></defs><g fill="none" fill-rule="evenodd"><g><use fill="#FFF" xlink:href="#a"/><path stroke="#E6EBEC" d="M6.686 79.083h103.628c3.18 0 5.768-2.58 5.768-5.75V6.667c0-3.17-2.587-5.75-5.768-5.75H6.686C3.505.917.918 3.497.918 6.667v66.666c0 3.17 2.587 5.75 5.768 5.75z"/></g><path d="M100.924 39.28h-.916V34.42h.964c1.978 0 3.039.816 3.039 2.357 0 1.635-1.061 2.501-3.087 2.501zm7.718 8.608l-5.064-6.734c2.363-.481 3.665-2.068 3.665-4.521 0-3.03-2.074-4.762-5.692-4.762h-4.679v16.017h3.136V41.49h.434l4.341 6.397h3.86zm-13.844 0v-2.694h-5.74v-4.328h5.548v-2.693h-5.548v-3.56h5.74V31.87h-8.875v16.017h8.875zM84.524 31.87h-3.425l-4.34 10.775-4.295-10.775H69.04l6.85 16.45h1.688l6.947-16.45zM51.867 43.656c-1.254 1.25-2.364 1.78-3.763 1.78-3.184 0-5.402-2.31-5.402-5.532 0-3.078 2.315-5.531 5.258-5.531 1.495 0 2.604.527 3.907 1.828v-3.706c-1.351-.673-2.508-.96-3.858-.96-4.729 0-8.54 3.702-8.54 8.37 0 4.713 3.716 8.368 8.491 8.368 1.35 0 2.508-.24 3.907-.914v-3.703zm-18.04-5.628c-1.882-.674-2.412-1.154-2.412-2.02 0-1.01.964-1.78 2.315-1.78.964 0 1.736.385 2.557 1.3l1.64-2.117c-1.35-1.203-2.99-1.78-4.727-1.78-2.846 0-5.018 1.972-5.018 4.57 0 2.212 1.013 3.367 3.957 4.425 1.205.432 1.832.673 2.17.913.628.385.917.962.917 1.635 0 1.299-1.013 2.262-2.412 2.262-1.496 0-2.701-.722-3.425-2.117l-2.026 1.924c1.446 2.116 3.183 3.078 5.548 3.078 3.28 0 5.546-2.165 5.546-5.29 0-2.55-1.062-3.705-4.63-5.003zm-10.806 9.86h3.136V31.87H23.02v16.017zm-6.415-3.944c-.964.865-2.266 1.25-4.292 1.25h-.82V34.613h.82c2.026 0 3.28.336 4.292 1.297 1.11.964 1.737 2.454 1.737 3.994 0 1.539-.627 3.03-1.737 4.04zm-3.665-12.073H8.357v16.017h4.584c2.411 0 4.197-.529 5.74-1.827 1.833-1.54 2.894-3.8 2.894-6.157 0-4.713-3.521-8.033-8.634-8.033z" fill="#333"/><path d="M61.514 31.294c-4.823 0-8.73 3.897-8.73 8.705 0 4.81 3.907 8.707 8.73 8.707 4.824 0 8.732-3.897 8.732-8.707 0-4.808-3.908-8.705-8.732-8.705" fill="#FF5D00"/></g></svg>
