<svg viewBox="0 0 117 80" xmlns="http://www.w3.org/2000/svg" xmlns:xlink="http://www.w3.org/1999/xlink"><defs><path d="M6.686 79.583c-3.457 0-6.268-2.803-6.268-6.25V6.667c0-3.447 2.811-6.25 6.268-6.25h103.628c3.457 0 6.268 2.803 6.268 6.25v66.666c0 3.447-2.811 6.25-6.268 6.25H6.686z" id="a"/></defs><g fill="none" fill-rule="evenodd"><g><use fill="#FFF" xlink:href="#a"/><path stroke="#E6EBEC" d="M6.686 79.083h103.628c3.18 0 5.768-2.58 5.768-5.75V6.667c0-3.17-2.587-5.75-5.768-5.75H6.686C3.505.917.918 3.497.918 6.667v66.666c0 3.17 2.587 5.75 5.768 5.75z"/></g><path d="M48.975 40c0-7.732 3.746-14.59 9.525-18.872a23.5 23.5 0 0 0-14.042-4.626c-13.014 0-23.565 10.52-23.565 23.498 0 12.978 10.55 23.498 23.565 23.498A23.5 23.5 0 0 0 58.5 58.872c-5.779-4.283-9.525-11.14-9.525-18.872" fill="red"/><path d="M72.541 16.501c-5.261 0-10.12 1.721-14.041 4.627 5.78 4.282 9.524 11.14 9.524 18.872 0 7.731-3.745 14.59-9.524 18.872A23.506 23.506 0 0 0 72.54 63.5c13.016 0 23.566-10.521 23.566-23.5 0-12.977-10.55-23.498-23.566-23.498" fill="#FC0"/><path d="M68.025 40c0-7.732-3.746-14.59-9.525-18.872-5.779 4.283-9.525 11.14-9.525 18.872 0 7.732 3.746 14.59 9.525 18.872 5.779-4.283 9.525-11.14 9.525-18.872" fill="#FF5D00"/></g></svg>
