<?xml version="1.0" encoding="UTF-8"?>
<svg width="107px" height="74px" viewBox="0 0 107 74" version="1.1" xmlns="http://www.w3.org/2000/svg" xmlns:xlink="http://www.w3.org/1999/xlink">
  <title>Visa - Color 105px</title>
  <defs>
    <rect id="path-1" x="0" y="0" width="84" height="27"></rect>
  </defs>
  <g id="Page-1" stroke="none" stroke-width="1" fill="none" fill-rule="evenodd">
    <g id="Visa---Color-105px" transform="translate(1.000000, 1.000000)">
      <rect id="Background" stroke="#E6EBEC" fill="#FFFFFF" x="0" y="0" width="105" height="72" rx="4"></rect>
      <g id="Visa-logo" transform="translate(11.000000, 23.000000)">
        <mask id="mask-2" fill="white">
          <use xlink:href="#path-1"></use>
        </mask>
        <g id="Rectangle"></g>
        <path d="M41.6031438,0.515812629 L35.9904562,26.6305796 L29.2030812,26.6305796 L34.8178687,0.515812629 L41.6031438,0.515812629 Z M70.16065,17.3772598 L73.7331875,7.5721172 L75.7892625,17.3772598 L70.16065,17.3772598 Z M77.7340812,26.6305796 L84.0117687,26.6305796 L78.5319937,0.515812629 L72.7377875,0.515812629 C71.4347812,0.515812629 70.3361312,1.27063383 69.8492375,2.43175653 L59.6636687,26.6305796 L66.7908937,26.6305796 L68.2063375,22.7296323 L76.9145562,22.7296323 L77.7340812,26.6305796 Z M60.018,18.1041263 C60.046875,11.2118925 50.442,10.8320217 50.5081062,7.75316978 C50.5285813,6.81616388 51.4251937,5.82002632 53.3871187,5.56542929 C54.3597688,5.43863152 57.0394563,5.34183501 60.0787688,6.73417205 L61.2708688,1.19656686 C59.6378562,0.60673081 57.5365875,0.0387969823 54.9217812,0.0387969823 C48.2127625,0.0387969823 43.4913937,3.588612 43.4514937,8.67127794 C43.4081812,12.4308405 46.8216,14.5286643 49.39305,15.7778749 C52.0385687,17.057348 52.9260813,17.8792692 52.9161937,19.0237585 C52.89725,20.7756752 50.806175,21.5490458 48.8518625,21.5792647 C45.4403687,21.6314295 43.4606375,20.6604163 41.8822687,19.9301535 L40.6521937,25.6512497 C42.2380875,26.37546 45.1654,27.0072282 48.2005563,27.038797 C55.3315438,27.038797 59.9959937,23.5332218 60.018,18.1041263 M31.9048187,0.515812629 L20.9075125,26.6305796 L13.7326437,26.6305796 L8.32085625,5.7897638 C7.9921625,4.50593639 7.70678125,4.0359312 6.707575,3.49525541 C5.07626875,2.61415896 2.381925,1.78792692 0.01176875,1.27481397 L0.1728125,0.515812629 L11.7225062,0.515812629 C13.1946937,0.515812629 14.518,1.49122363 14.8522062,3.17865287 L17.7103937,18.2900992 L24.7744,0.515812629 L31.9048187,0.515812629 Z" id="Shape" fill="#1434CB" fill-rule="nonzero" mask="url(#mask-2)"></path>
      </g>
    </g>
  </g>
</svg>
